Run_20002
nRows=4
nColumns=164

# SIMM Motion File Header:
name Run_20002
datacolumns 164
datarows 4
otherdata 1
range 4.67000000 4.70000000
endheader
time	pelvis_tilt	pelvis_list	pelvis_rotation	pelvis_tx	pelvis_ty	pelvis_tz	hip_flexion_r	hip_adduction_r	hip_rotation_r	knee_angle_r	ankle_angle_r	hip_flexion_l	hip_adduction_l	hip_rotation_l	knee_angle_l	ankle_angle_l	lumbar_extension	lumbar_bending	lumbar_rotation	arm_flex_r	arm_add_r	arm_rot_r	elbow_flex_r	pro_sup_r	arm_flex_l	arm_add_l	arm_rot_l	elbow_flex_l	pro_sup_l	subtalar_angle_r	mtp_angle_r	subtalar_angle_l	mtp_angle_l	wrist_flex_r	wrist_dev_r	wrist_flex_l	wrist_dev_l	LASI_tx	LASI_ty	LASI_tz	RASI_tx	RASI_ty	RASI_tz	LPSI_tx	LPSI_ty	LPSI_tz	RPSI_tx	RPSI_ty	RPSI_tz	RTH1_tx	RTH1_ty	RTH1_tz	RTH2_tx	RTH2_ty	RTH2_tz	RTH3_tx	RTH3_ty	RTH3_tz	LTH1_tx	LTH1_ty	LTH1_tz	LTH2_tx	LTH2_ty	LTH2_tz	LTH3_tx	LTH3_ty	LTH3_tz	RTB1_tx	RTB1_ty	RTB1_tz	RTB2_tx	RTB2_ty	RTB2_tz	RTB3_tx	RTB3_ty	RTB3_tz	LTB1_tx	LTB1_ty	LTB1_tz	LTB2_tx	LTB2_ty	LTB2_tz	LTB3_tx	LTB3_ty	LTB3_tz	RCAL_tx	RCAL_ty	RCAL_tz	RTOE_tx	RTOE_ty	RTOE_tz	RMT5_tx	RMT5_ty	RMT5_tz	LCAL_tx	LCAL_ty	LCAL_tz	LTOE_tx	LTOE_ty	LTOE_tz	LMT5_tx	LMT5_ty	LMT5_tz	LACR_tx	LACR_ty	LACR_tz	RACR_tx	RACR_ty	RACR_tz	CLAV_tx	CLAV_ty	CLAV_tz	C7_tx	C7_ty	C7_tz	RUA1_tx	RUA1_ty	RUA1_tz	RUA2_tx	RUA2_ty	RUA2_tz	RUA3_tx	RUA3_ty	RUA3_tz	RLEL_tx	RLEL_ty	RLEL_tz	RMEL_tx	RMEL_ty	RMEL_tz	LUA1_tx	LUA1_ty	LUA1_tz	LUA2_tx	LUA2_ty	LUA2_tz	LUA3_tx	LUA3_ty	LUA3_tz	LLEL_tx	LLEL_ty	LLEL_tz	LMEL_tx	LMEL_ty	LMEL_tz	RFAsuperior_tx	RFAsuperior_ty	RFAsuperior_tz	RFAradius_tx	RFAradius_ty	RFAradius_tz	RFAulna_tx	RFAulna_ty	RFAulna_tz	LFAsuperior_tx	LFAsuperior_ty	LFAsuperior_tz	LFAradius_tx	LFAradius_ty	LFAradius_tz	LFAulna_tx	LFAulna_ty	LFAulna_tz
      4.67000000	      2.08134243	     -2.39303567	     -4.43342793	      1.12371771	      0.99958416	     -0.33085563	     27.04168437	      4.10828225	      0.17711124	    -60.15246409	      9.70457854	    -12.39515441	      6.36083630	      9.42809748	    -15.82970797	     14.07876200	    -16.63894901	      2.80451946	     -9.34149013	    -44.77550237	    -13.42607850	     -3.70173189	    116.22584422	     92.51116033	    -11.56549651	    -11.54392425	      5.19105417	    124.97442904	     89.21453740	      0.00000000	      0.00000000	      0.00000000	      0.00000000	      0.00000000	      0.00000000	      0.00000000	      0.00000000	      1.13927849	      1.02213182	     -0.45127411	      1.11555264	      1.02489725	     -0.19540501	      0.96648208	      1.06690605	     -0.38725125	      0.95247111	      1.06659948	     -0.29446139	      1.10868491	      0.86225246	     -0.13865837	      1.18859820	      0.78831924	     -0.14809793	      1.18646849	      0.64724890	     -0.16415171	      1.05892485	      0.86031830	     -0.50892870	      1.10097825	      0.72571587	     -0.48051130	      1.00515615	      0.61973882	     -0.46958329	      1.21289387	      0.39955561	     -0.22890019	      1.11975149	      0.33116738	     -0.19176075	      1.11747594	      0.25105850	     -0.24974158	      0.95416657	      0.33826130	     -0.38154446	      0.89846102	      0.29493780	     -0.42244364	      0.87678905	      0.22351614	     -0.36142903	      0.96614760	      0.20433635	     -0.26801749	      1.18012542	      0.10634757	     -0.24482836	      1.14525606	      0.09374498	     -0.17236395	      0.70993439	      0.15010776	     -0.34269427	      0.93493966	      0.06871669	     -0.31491734	      0.90567743	      0.05788009	     -0.40283922	      1.17329349	      1.53839704	     -0.49753291	      1.09644321	      1.52398622	     -0.15713076	      1.17595828	      1.47351718	     -0.28606493	      1.07074715	      1.56352739	     -0.34496838	      0.98504835	      1.43259500	     -0.10054605	      0.92428316	      1.45178838	     -0.13248823	      0.90139006	      1.38511879	     -0.10565617	      0.83606769	      1.33282404	     -0.09938219	      0.82752120	      1.34039489	     -0.19268092	      1.13675677	      1.41700021	     -0.57802662	      1.05638621	      1.36734560	     -0.58804576	      1.09914979	      1.29285418	     -0.59996894	      1.08549499	      1.22452881	     -0.61248537	      1.02591613	      1.22012789	     -0.54121290	      0.90752984	      1.27985839	     -0.09620681	      1.04467645	      1.18788566	     -0.14417980	      0.99429280	      1.13849450	     -0.13094078	      1.16145266	      1.21334218	     -0.56747140	      1.27377206	      1.24953701	     -0.43597796	      1.28144732	      1.17785905	     -0.44182235
      4.68000000	      1.69116635	     -3.36758970	     -4.39141815	      1.12613290	      1.00596897	     -0.33060335	     26.48647023	      5.24367875	     -0.38593139	    -54.51252374	      9.79590702	    -14.17015298	      5.18693564	      9.33244211	    -13.91726741	     10.81257066	    -16.01958959	      4.13186318	     -9.11646964	    -46.25014513	    -13.43168492	     -4.46177017	    118.29835284	     91.61973071	    -11.53345000	    -11.93749535	      6.40707764	    126.42068084	     89.93284716	      0.00000000	      0.00000000	      0.00000000	      0.00000000	      0.00000000	      0.00000000	      0.00000000	      0.00000000	      1.14115337	      1.02916963	     -0.45141410	      1.11752689	      1.03252631	     -0.19575203	      0.96994188	      1.07286334	     -0.38842833	      0.95501991	      1.07375550	     -0.29605336	      1.10981909	      0.87019239	     -0.13801770	      1.18908167	      0.79508819	     -0.14793302	      1.18457333	      0.65325892	     -0.16533700	      1.05913791	      0.86471733	     -0.50802166	      1.09623501	      0.72957392	     -0.47783228	      0.99620394	      0.62670882	     -0.46877852	      1.22098209	      0.40201105	     -0.22906706	      1.13370751	      0.32603441	     -0.19270296	      1.13771035	      0.24652633	     -0.25134641	      0.93923516	      0.34596180	     -0.38161285	      0.88329003	      0.30287503	     -0.42242588	      0.86219209	      0.23093167	     -0.36171014	      0.99063779	      0.18734693	     -0.27002436	      1.21234094	      0.10814390	     -0.24693645	      1.17855606	      0.09220564	     -0.17465135	      0.69645854	      0.16072253	     -0.34281565	      0.91608494	      0.06867554	     -0.31504648	      0.88657411	      0.05823317	     -0.40252038	      1.17346477	      1.54777087	     -0.49517540	      1.09594173	      1.53192111	     -0.15645653	      1.17557149	      1.48156835	     -0.28488801	      1.06991469	      1.57083781	     -0.34390972	      0.98412867	      1.44271870	     -0.10027018	      0.92403764	      1.46250081	     -0.13294723	      0.90029007	      1.39600030	     -0.10578561	      0.83418887	      1.34411451	     -0.10036444	      0.82653821	      1.35202970	     -0.19389285	      1.13952151	      1.42716063	     -0.57719532	      1.05938411	      1.37753971	     -0.58882454	      1.10262105	      1.30352745	     -0.60103597	      1.08930911	      1.23502382	     -0.61379596	      1.02809355	      1.23027698	     -0.54369689	      0.90593375	      1.29226493	     -0.09652119	      1.04511841	      1.20237765	     -0.14307483	      0.99526995	      1.15212271	     -0.13160942	      1.16435768	      1.22548973	     -0.56720131	      1.27235798	      1.26482703	     -0.43268171	      1.28246522	      1.19338867	     -0.43811028
      4.69000000	      1.32099018	     -4.22123219	     -4.30155180	      1.12869939	      1.01208656	     -0.33046364	     25.64121489	      6.29008066	     -0.76968625	    -48.46957596	      9.70091258	    -15.72229348	      4.14732204	      9.08550316	    -12.38666863	      7.39305099	    -15.38112292	      5.36335747	     -8.92644088	    -47.58706567	    -13.39551240	     -5.20396602	    120.21675877	     90.94306226	    -11.59803714	    -12.42693660	      7.50275230	    127.66427062	     90.70462437	      0.00000000	      0.00000000	      0.00000000	      0.00000000	      0.00000000	      0.00000000	      0.00000000	      0.00000000	      1.14338766	      1.03585015	     -0.45180269	      1.11985026	      1.03976653	     -0.19632657	      0.97328804	      1.07851647	     -0.38943833	      0.95769157	      1.08039469	     -0.29743568	      1.11094929	      0.87733386	     -0.13735684	      1.18907566	      0.80051849	     -0.14791779	      1.18124559	      0.65804438	     -0.16658863	      1.05948065	      0.86933950	     -0.50733081	      1.09221126	      0.73371493	     -0.47554877	      0.98845540	      0.63382079	     -0.46832605	      1.22795384	      0.40396862	     -0.22923253	      1.14763327	      0.32078951	     -0.19352810	      1.15747809	      0.24248621	     -0.25291122	      0.92556368	      0.35407387	     -0.38193633	      0.86923959	      0.31138545	     -0.42266770	      0.84878569	      0.23883708	     -0.36231643	      1.01572935	      0.17123571	     -0.27147232	      1.24361421	      0.11141068	     -0.25001073	      1.21169195	      0.09194036	     -0.17780427	      0.68434038	      0.17212502	     -0.34281843	      0.89750889	      0.06870935	     -0.31526555	      0.86775763	      0.05876236	     -0.40237263	      1.17352407	      1.55707394	     -0.49289658	      1.09560231	      1.53954918	     -0.15588342	      1.17515168	      1.48932801	     -0.28380767	      1.06904576	      1.57792994	     -0.34283984	      0.98360461	      1.45236086	     -0.09984830	      0.92403456	      1.47243562	     -0.13315328	      0.89964303	      1.40605257	     -0.10550795	      0.83294563	      1.35424554	     -0.10084325	      0.82598697	      1.36251335	     -0.19461553	      1.14171677	      1.43752798	     -0.57643362	      1.06145007	      1.38806246	     -0.58891498	      1.10563096	      1.31460212	     -0.60238618	      1.09265688	      1.24584819	     -0.61546811	      1.03013115	      1.24040714	     -0.54659153	      0.90508272	      1.30358880	     -0.09647925	      1.04618040	      1.21592646	     -0.14192307	      0.99699103	      1.16483410	     -0.13193417	      1.16684734	      1.23757205	     -0.56751163	      1.27069990	      1.27869051	     -0.43003723	      1.28305276	      1.20752356	     -0.43525196
      4.70000000	      0.94946034	     -4.91512003	     -4.20175685	      1.13143913	      1.01773550	     -0.33035786	     24.55178962	      7.22709126	     -0.86658177	    -42.10012903	      9.36323689	    -17.04741855	      3.28052874	      8.75622658	    -11.20296478	      3.92588522	    -14.68943249	      6.43675703	     -8.74646165	    -48.78926951	    -13.33055944	     -5.90976371	    121.96033568	     90.58452332	    -11.75600228	    -12.99387669	      8.49065844	    128.70576606	     91.47136104	      0.00000000	      0.00000000	      0.00000000	      0.00000000	      0.00000000	      0.00000000	      0.00000000	      0.00000000	      1.14598444	      1.04189839	     -0.45230882	      1.12253454	      1.04636211	     -0.19699886	      0.97653308	      1.08388098	     -0.39040396	      0.96060397	      1.08640325	     -0.29852788	      1.11212008	      0.88342531	     -0.13665984	      1.18858024	      0.80445187	     -0.14787486	      1.17637817	      0.66154435	     -0.16767481	      1.06014493	      0.87401382	     -0.50696077	      1.08896695	      0.73789026	     -0.47370899	      0.98192870	      0.64088083	     -0.46814233	      1.23389282	      0.40559642	     -0.22963429	      1.16133292	      0.31581633	     -0.19426740	      1.17663401	      0.23915623	     -0.25438342	      0.91323864	      0.36237031	     -0.38253303	      0.85644973	      0.32022302	     -0.42330705	      0.83658005	      0.24697994	     -0.36328671	      1.04114412	      0.15647173	     -0.27223512	      1.27352386	      0.11613651	     -0.25398691	      1.24423148	      0.09303569	     -0.18171295	      0.67358377	      0.18414111	     -0.34295494	      0.87926633	      0.06892210	     -0.31563593	      0.84931613	      0.05961223	     -0.40261467	      1.17338603	      1.56603054	     -0.49067993	      1.09541703	      1.54674036	     -0.15532405	      1.17470205	      1.49661643	     -0.28288112	      1.06815758	      1.58462226	     -0.34178066	      0.98347774	      1.46120002	     -0.09924423	      0.92430985	      1.48138965	     -0.13312524	      0.89941498	      1.41518160	     -0.10481170	      0.83231123	      1.36314931	     -0.10075123	      0.82582513	      1.37171825	     -0.19478959	      1.14321707	      1.44787924	     -0.57568190	      1.06274179	      1.39858656	     -0.58847452	      1.10815796	      1.32574807	     -0.60397345	      1.09552094	      1.25663077	     -0.61739607	      1.03196738	      1.25022410	     -0.54969803	      0.90491331	      1.31369770	     -0.09607109	      1.04778715	      1.22836073	     -0.14082323	      0.99935564	      1.17648444	     -0.13185403	      1.16892720	      1.24932982	     -0.56818700	      1.26892887	      1.29102649	     -0.42792695	      1.28325235	      1.22011531	     -0.43312455
